<mxfile host="app.diagrams.net" agent="Mozilla/5.0 (Windows NT 10.0; Win64; x64) AppleWebKit/537.36 (KHTML, like Gecko) Chrome/139.0.0.0 Safari/537.36" version="28.1.1">
  <diagram name="Page-1" id="9OjMmdRKz2nsaYtZCkV5">
    <mxGraphModel dx="1042" dy="562" grid="1" gridSize="10" guides="1" tooltips="1" connect="1" arrows="1" fold="1" page="1" pageScale="1" pageWidth="850" pageHeight="1100" math="0" shadow="0">
      <root>
        <mxCell id="0" />
        <mxCell id="1" parent="0" />
        <mxCell id="aWQeUqm_XXBKlblPWC2a-37" value="" style="endArrow=classic;html=1;rounded=0;exitX=1.01;exitY=0.423;exitDx=0;exitDy=0;exitPerimeter=0;" edge="1" parent="1" source="aWQeUqm_XXBKlblPWC2a-7">
          <mxGeometry width="50" height="50" relative="1" as="geometry">
            <mxPoint x="640" y="270" as="sourcePoint" />
            <mxPoint x="690" y="220" as="targetPoint" />
          </mxGeometry>
        </mxCell>
        <mxCell id="aWQeUqm_XXBKlblPWC2a-1" value="STUDENT INFORMATION SYSTEM" style="rounded=0;whiteSpace=wrap;html=1;fillColor=#d80073;fontColor=#ffffff;strokeColor=#A50040;" vertex="1" parent="1">
          <mxGeometry x="260" y="20" width="340" height="60" as="geometry" />
        </mxCell>
        <mxCell id="aWQeUqm_XXBKlblPWC2a-20" style="edgeStyle=orthogonalEdgeStyle;rounded=0;orthogonalLoop=1;jettySize=auto;html=1;" edge="1" parent="1" source="aWQeUqm_XXBKlblPWC2a-2">
          <mxGeometry relative="1" as="geometry">
            <mxPoint x="300" y="145" as="targetPoint" />
          </mxGeometry>
        </mxCell>
        <mxCell id="aWQeUqm_XXBKlblPWC2a-22" style="edgeStyle=orthogonalEdgeStyle;rounded=0;orthogonalLoop=1;jettySize=auto;html=1;" edge="1" parent="1" source="aWQeUqm_XXBKlblPWC2a-2">
          <mxGeometry relative="1" as="geometry">
            <mxPoint x="150" y="210" as="targetPoint" />
          </mxGeometry>
        </mxCell>
        <mxCell id="aWQeUqm_XXBKlblPWC2a-2" value="ADMIN" style="rounded=0;whiteSpace=wrap;html=1;fillColor=#a20025;fontColor=#ffffff;strokeColor=#6F0000;" vertex="1" parent="1">
          <mxGeometry x="90" y="120" width="120" height="50" as="geometry" />
        </mxCell>
        <mxCell id="aWQeUqm_XXBKlblPWC2a-3" value="SEND EMAIL&lt;div&gt;TO USER&lt;/div&gt;" style="ellipse;whiteSpace=wrap;html=1;aspect=fixed;fillColor=#60a917;fontColor=#ffffff;strokeColor=#2D7600;" vertex="1" parent="1">
          <mxGeometry x="110" y="340" width="80" height="80" as="geometry" />
        </mxCell>
        <mxCell id="aWQeUqm_XXBKlblPWC2a-23" style="edgeStyle=orthogonalEdgeStyle;rounded=0;orthogonalLoop=1;jettySize=auto;html=1;entryX=0.5;entryY=0;entryDx=0;entryDy=0;" edge="1" parent="1" source="aWQeUqm_XXBKlblPWC2a-4" target="aWQeUqm_XXBKlblPWC2a-3">
          <mxGeometry relative="1" as="geometry" />
        </mxCell>
        <mxCell id="aWQeUqm_XXBKlblPWC2a-4" value="FORGOT&lt;div&gt;PASSWORD&lt;/div&gt;" style="ellipse;whiteSpace=wrap;html=1;aspect=fixed;fillColor=#60a917;fontColor=#ffffff;strokeColor=#2D7600;" vertex="1" parent="1">
          <mxGeometry x="110" y="220" width="80" height="80" as="geometry" />
        </mxCell>
        <mxCell id="aWQeUqm_XXBKlblPWC2a-5" value="CHECK&lt;div&gt;CREDENTIAL&lt;/div&gt;" style="ellipse;whiteSpace=wrap;html=1;aspect=fixed;fillColor=#60a917;fontColor=#ffffff;strokeColor=#2D7600;" vertex="1" parent="1">
          <mxGeometry x="310" y="270" width="80" height="80" as="geometry" />
        </mxCell>
        <mxCell id="aWQeUqm_XXBKlblPWC2a-21" style="edgeStyle=orthogonalEdgeStyle;rounded=0;orthogonalLoop=1;jettySize=auto;html=1;" edge="1" parent="1" source="aWQeUqm_XXBKlblPWC2a-6">
          <mxGeometry relative="1" as="geometry">
            <mxPoint x="350" y="250" as="targetPoint" />
          </mxGeometry>
        </mxCell>
        <mxCell id="aWQeUqm_XXBKlblPWC2a-6" value="LOGIN TO&lt;div&gt;SYSTEM&lt;/div&gt;" style="ellipse;whiteSpace=wrap;html=1;aspect=fixed;fillColor=#60a917;fontColor=#ffffff;strokeColor=#2D7600;" vertex="1" parent="1">
          <mxGeometry x="310" y="110" width="80" height="80" as="geometry" />
        </mxCell>
        <mxCell id="aWQeUqm_XXBKlblPWC2a-26" style="edgeStyle=orthogonalEdgeStyle;rounded=0;orthogonalLoop=1;jettySize=auto;html=1;" edge="1" parent="1" source="aWQeUqm_XXBKlblPWC2a-7">
          <mxGeometry relative="1" as="geometry">
            <mxPoint x="550" y="440" as="targetPoint" />
          </mxGeometry>
        </mxCell>
        <mxCell id="aWQeUqm_XXBKlblPWC2a-7" value="MANAGE&lt;div&gt;MODULES&lt;/div&gt;" style="ellipse;whiteSpace=wrap;html=1;aspect=fixed;fillColor=#60a917;fontColor=#ffffff;strokeColor=#2D7600;" vertex="1" parent="1">
          <mxGeometry x="510" y="260" width="80" height="80" as="geometry" />
        </mxCell>
        <mxCell id="aWQeUqm_XXBKlblPWC2a-25" style="edgeStyle=orthogonalEdgeStyle;rounded=0;orthogonalLoop=1;jettySize=auto;html=1;" edge="1" parent="1" source="aWQeUqm_XXBKlblPWC2a-8">
          <mxGeometry relative="1" as="geometry">
            <mxPoint x="550" y="250" as="targetPoint" />
          </mxGeometry>
        </mxCell>
        <mxCell id="aWQeUqm_XXBKlblPWC2a-8" value="CHECK&lt;div&gt;RULES OF&lt;/div&gt;&lt;div&gt;ACCESS&lt;/div&gt;" style="ellipse;whiteSpace=wrap;html=1;aspect=fixed;fillColor=#60a917;fontColor=#ffffff;strokeColor=#2D7600;" vertex="1" parent="1">
          <mxGeometry x="510" y="120" width="80" height="80" as="geometry" />
        </mxCell>
        <mxCell id="aWQeUqm_XXBKlblPWC2a-9" value="MANAGE SYSTEM&amp;nbsp;&lt;div&gt;ADMINS&lt;/div&gt;" style="rounded=0;whiteSpace=wrap;html=1;fillColor=#a20025;fontColor=#ffffff;strokeColor=#6F0000;" vertex="1" parent="1">
          <mxGeometry x="60" y="460" width="150" height="60" as="geometry" />
        </mxCell>
        <mxCell id="aWQeUqm_XXBKlblPWC2a-10" value="MANAGE ROLES OF&lt;div&gt;USER&lt;/div&gt;" style="rounded=0;whiteSpace=wrap;html=1;fillColor=#a20025;fontColor=#ffffff;strokeColor=#6F0000;" vertex="1" parent="1">
          <mxGeometry x="270" y="460" width="150" height="60" as="geometry" />
        </mxCell>
        <mxCell id="aWQeUqm_XXBKlblPWC2a-11" value="MANAGE USER&lt;div&gt;PERMISSION&lt;/div&gt;" style="rounded=0;whiteSpace=wrap;html=1;fillColor=#a20025;fontColor=#ffffff;strokeColor=#6F0000;" vertex="1" parent="1">
          <mxGeometry x="470" y="460" width="140" height="60" as="geometry" />
        </mxCell>
        <mxCell id="aWQeUqm_XXBKlblPWC2a-13" value="MANAGE ATTENDENCE&lt;div&gt;DETAILS&lt;/div&gt;" style="rounded=0;whiteSpace=wrap;html=1;fillColor=#1ba1e2;fontColor=#ffffff;strokeColor=#006EAF;" vertex="1" parent="1">
          <mxGeometry x="690" y="140" width="150" height="60" as="geometry" />
        </mxCell>
        <mxCell id="aWQeUqm_XXBKlblPWC2a-14" value="MANAGE STUDENT&lt;div&gt;DETAILS&lt;/div&gt;" style="rounded=0;whiteSpace=wrap;html=1;fillColor=#1ba1e2;fontColor=#ffffff;strokeColor=#006EAF;" vertex="1" parent="1">
          <mxGeometry x="690" y="280" width="155" height="60" as="geometry" />
        </mxCell>
        <mxCell id="aWQeUqm_XXBKlblPWC2a-15" value="MANAGE CLASS&lt;div&gt;DETAILS&lt;/div&gt;" style="rounded=0;whiteSpace=wrap;html=1;fillColor=#1ba1e2;fontColor=#ffffff;strokeColor=#006EAF;" vertex="1" parent="1">
          <mxGeometry x="690" y="210" width="150" height="60" as="geometry" />
        </mxCell>
        <mxCell id="aWQeUqm_XXBKlblPWC2a-17" value="MANAGE TEACHER&lt;div&gt;PROFILES&lt;/div&gt;" style="rounded=0;whiteSpace=wrap;html=1;fillColor=#1ba1e2;fontColor=#ffffff;strokeColor=#006EAF;" vertex="1" parent="1">
          <mxGeometry x="690" y="420" width="160" height="60" as="geometry" />
        </mxCell>
        <mxCell id="aWQeUqm_XXBKlblPWC2a-18" value="MANAGE FEE&lt;div&gt;DETAILS&lt;/div&gt;" style="rounded=0;whiteSpace=wrap;html=1;fillColor=#1ba1e2;fontColor=#ffffff;strokeColor=#006EAF;" vertex="1" parent="1">
          <mxGeometry x="687.5" y="350" width="160" height="60" as="geometry" />
        </mxCell>
        <mxCell id="aWQeUqm_XXBKlblPWC2a-19" value="MANAGE REPORT" style="rounded=0;whiteSpace=wrap;html=1;fillColor=#1ba1e2;fontColor=#ffffff;strokeColor=#006EAF;" vertex="1" parent="1">
          <mxGeometry x="690" y="490" width="160" height="60" as="geometry" />
        </mxCell>
        <mxCell id="aWQeUqm_XXBKlblPWC2a-28" value="MANAGE TIMETABLE&lt;div&gt;DETAILS&lt;/div&gt;" style="rounded=0;whiteSpace=wrap;html=1;fillColor=#1ba1e2;fontColor=#ffffff;strokeColor=#006EAF;" vertex="1" parent="1">
          <mxGeometry x="687.5" y="70" width="150" height="60" as="geometry" />
        </mxCell>
        <mxCell id="aWQeUqm_XXBKlblPWC2a-30" value="" style="endArrow=classic;html=1;rounded=0;" edge="1" parent="1">
          <mxGeometry width="50" height="50" relative="1" as="geometry">
            <mxPoint x="590" y="280" as="sourcePoint" />
            <mxPoint x="687.5" y="91.48" as="targetPoint" />
            <Array as="points" />
          </mxGeometry>
        </mxCell>
        <mxCell id="aWQeUqm_XXBKlblPWC2a-34" value="" style="endArrow=classic;html=1;rounded=0;exitX=1;exitY=0.375;exitDx=0;exitDy=0;exitPerimeter=0;" edge="1" parent="1" source="aWQeUqm_XXBKlblPWC2a-7">
          <mxGeometry width="50" height="50" relative="1" as="geometry">
            <mxPoint x="627.5" y="220" as="sourcePoint" />
            <mxPoint x="687.5" y="160" as="targetPoint" />
            <Array as="points" />
          </mxGeometry>
        </mxCell>
        <mxCell id="aWQeUqm_XXBKlblPWC2a-38" value="" style="endArrow=classic;html=1;rounded=0;entryX=0;entryY=0.25;entryDx=0;entryDy=0;exitX=1;exitY=0.5;exitDx=0;exitDy=0;" edge="1" parent="1" source="aWQeUqm_XXBKlblPWC2a-7" target="aWQeUqm_XXBKlblPWC2a-14">
          <mxGeometry width="50" height="50" relative="1" as="geometry">
            <mxPoint x="620" y="325" as="sourcePoint" />
            <mxPoint x="670" y="275" as="targetPoint" />
          </mxGeometry>
        </mxCell>
        <mxCell id="aWQeUqm_XXBKlblPWC2a-39" value="" style="endArrow=classic;html=1;rounded=0;exitX=1.01;exitY=0.623;exitDx=0;exitDy=0;exitPerimeter=0;entryX=0;entryY=0.5;entryDx=0;entryDy=0;" edge="1" parent="1">
          <mxGeometry width="50" height="50" relative="1" as="geometry">
            <mxPoint x="593.3" y="300.00000000000006" as="sourcePoint" />
            <mxPoint x="690" y="370.16" as="targetPoint" />
          </mxGeometry>
        </mxCell>
        <mxCell id="aWQeUqm_XXBKlblPWC2a-40" value="" style="endArrow=classic;html=1;rounded=0;exitX=1;exitY=0.613;exitDx=0;exitDy=0;exitPerimeter=0;" edge="1" parent="1" source="aWQeUqm_XXBKlblPWC2a-7">
          <mxGeometry width="50" height="50" relative="1" as="geometry">
            <mxPoint x="630" y="490" as="sourcePoint" />
            <mxPoint x="680" y="440" as="targetPoint" />
            <Array as="points" />
          </mxGeometry>
        </mxCell>
        <mxCell id="aWQeUqm_XXBKlblPWC2a-41" value="" style="endArrow=classic;html=1;rounded=0;exitX=1.01;exitY=0.723;exitDx=0;exitDy=0;exitPerimeter=0;" edge="1" parent="1" source="aWQeUqm_XXBKlblPWC2a-7">
          <mxGeometry width="50" height="50" relative="1" as="geometry">
            <mxPoint x="587.5" y="350" as="sourcePoint" />
            <mxPoint x="687.5" y="520" as="targetPoint" />
          </mxGeometry>
        </mxCell>
        <mxCell id="aWQeUqm_XXBKlblPWC2a-42" value="" style="endArrow=classic;html=1;rounded=0;exitX=0;exitY=0.625;exitDx=0;exitDy=0;exitPerimeter=0;" edge="1" parent="1" source="aWQeUqm_XXBKlblPWC2a-7">
          <mxGeometry width="50" height="50" relative="1" as="geometry">
            <mxPoint x="405" y="390" as="sourcePoint" />
            <mxPoint x="200" y="450" as="targetPoint" />
          </mxGeometry>
        </mxCell>
        <mxCell id="aWQeUqm_XXBKlblPWC2a-43" value="" style="endArrow=classic;html=1;rounded=0;" edge="1" parent="1" source="aWQeUqm_XXBKlblPWC2a-7">
          <mxGeometry width="50" height="50" relative="1" as="geometry">
            <mxPoint x="390" y="430" as="sourcePoint" />
            <mxPoint x="360" y="450" as="targetPoint" />
          </mxGeometry>
        </mxCell>
        <mxCell id="aWQeUqm_XXBKlblPWC2a-44" value="" style="endArrow=classic;html=1;rounded=0;" edge="1" parent="1" target="aWQeUqm_XXBKlblPWC2a-8">
          <mxGeometry width="50" height="50" relative="1" as="geometry">
            <mxPoint x="400" y="310" as="sourcePoint" />
            <mxPoint x="450" y="260" as="targetPoint" />
          </mxGeometry>
        </mxCell>
      </root>
    </mxGraphModel>
  </diagram>
</mxfile>
